HIERARCHY
ROOT Hips
{
	OFFSET 0.00 0.00 0.00
	CHANNELS 6 Xposition Yposition Zposition Xrotation Yrotation Zrotation
	JOINT LeftUpLeg
	{
		OFFSET 3.64953 0.00000 0.00000
		CHANNELS 3 Xrotation Yrotation Zrotation
		JOINT LeftLeg
		{
			OFFSET 0.00000 -15.70580 0.00000
			CHANNELS 3 Xrotation Yrotation Zrotation
			JOINT LeftFoot
			{
				OFFSET 0.00000 -15.41867 0.00000
				CHANNELS 3 Xrotation Yrotation Zrotation
				JOINT LeftToeBase
				{
					OFFSET 0.00000 -1.53543 5.73033
					CHANNELS 3 Xrotation Yrotation Zrotation
					End Site
					{
						OFFSET 0.00000 0.00000 2.95275
					}
				}
			}
		}
	}
	JOINT RightUpLeg
	{
		OFFSET -3.64953 0.00000 0.00000
		CHANNELS 3 Xrotation Yrotation Zrotation
		JOINT RightLeg
		{
			OFFSET 0.00000 -15.70580 0.00000
			CHANNELS 3 Xrotation Yrotation Zrotation
			JOINT RightFoot
			{
				OFFSET 0.00000 -15.41867 0.00000
				CHANNELS 3 Xrotation Yrotation Zrotation
				JOINT RightToeBase
				{
					OFFSET 0.00000 -1.53543 5.73033
					CHANNELS 3 Xrotation Yrotation Zrotation
					End Site
					{
						OFFSET 0.00000 0.00000 2.95275
					}
				}
			}
		}
	}
	JOINT Spine
	{
		OFFSET 0.00000 0.03937 0.00000
		CHANNELS 3 Xrotation Yrotation Zrotation
		JOINT Spine1
		{
			OFFSET 0.00000 10.24829 0.00000
			CHANNELS 3 Xrotation Yrotation Zrotation
			JOINT Neck
			{
				OFFSET 0.00000 7.82687 0.00000
				CHANNELS 3 Xrotation Yrotation Zrotation
				JOINT Head
				{
					OFFSET 0.00000 6.90715 0.00000
					CHANNELS 3 Xrotation Yrotation Zrotation
					End Site
					{
						OFFSET 0.00000 4.52755 0.00000
					}
				}
			}
			JOINT LeftShoulder
			{
				OFFSET 0.00000 7.82687 0.00000
				CHANNELS 3 Xrotation Yrotation Zrotation
				JOINT LeftArm
				{
					OFFSET 6.71018 -0.00002 0.00000
					CHANNELS 3 Xrotation Yrotation Zrotation
					JOINT LeftForeArm
					{
						OFFSET 10.94419 -0.00004 0.00000
						CHANNELS 3 Xrotation Yrotation Zrotation
						JOINT LeftHand
						{
							OFFSET 8.52010 -0.00003 0.00000
							CHANNELS 3 Xrotation Yrotation Zrotation
							JOINT LeftHandThumb
							{
								OFFSET 0.00000 0.00000 0.00000
								CHANNELS 3 Xrotation Yrotation Zrotation
								End Site
								{
									OFFSET 0.00000 0.00000 3.93700
								}
							}
							JOINT L_Wrist_End
							{
								OFFSET 3.93700 -0.00001 0.00000
								CHANNELS 3 Xrotation Yrotation Zrotation
							}
						}
					}
				}
			}
			JOINT RightShoulder
			{
				OFFSET 0.00000 7.82687 0.00000
				CHANNELS 3 Xrotation Yrotation Zrotation
				JOINT RightArm
				{
					OFFSET -6.71018 -0.00002 0.00000
					CHANNELS 3 Xrotation Yrotation Zrotation
					JOINT RightForeArm
					{
						OFFSET -10.94419 -0.00004 0.00000
						CHANNELS 3 Xrotation Yrotation Zrotation
						JOINT RightHand
						{
							OFFSET -8.52010 -0.00003 0.00000
							CHANNELS 3 Xrotation Yrotation Zrotation
							JOINT RightHandThumb
							{
								OFFSET 0.00000 0.00000 0.00000
								CHANNELS 3 Xrotation Yrotation Zrotation
								End Site
								{
									OFFSET 0.00000 0.00000 3.93700
								}
							}
							JOINT R_Wrist_End
							{
								OFFSET -5.39369 -0.00002 0.00000
								CHANNELS 3 Xrotation Yrotation Zrotation
							}
						}
					}
				}
			}
		}
	}
}
MOTION
Frames: 17
Frame Time: 0.008333
 11.9823 32.3822 29.6489 -97.0720 84.9808 94.8608 5.0930 4.6607 4.6219 50.4267 0.0000 0.0000 -15.5491 -20.2124 -20.0844 8.1388 -0.0000 0.0000 -2.6107 -7.0237 11.6004 10.6922 0.0000 0.0000 -14.0820 -6.2174 -8.4619 3.1633 -0.0000 0.0000 -6.8624 0.5373 -0.6977 9.9270 -1.0434 0.2703 5.4334 3.1361 -3.3191 17.3242 -2.4252 5.3527 19.9625 11.6983 -3.4766 -8.7838 -41.5497 -67.0539 -0.0001 -16.1320 -0.0000 -6.8439 3.3788 -16.4000 0.0000 0.0000 -0.0000 0.0000 0.0000 -0.0000 13.9321 -19.1643 5.0008 -6.3466 17.6008 64.6163 -0.0000 12.3934 0.0000 -33.8799 -0.9125 10.0896 0.0000 -0.0000 0.0000 0.0000 -0.0000 0.0000
 11.7370 32.3593 29.6958 -103.0865 84.9289 100.9993 6.2928 5.2350 4.2046 47.2406 -0.0000 0.0000 -14.5466 -19.9048 -19.4217 5.9804 -0.0000 -0.0000 -3.7532 -6.9972 11.4463 11.8624 0.0000 -0.0000 -14.0584 -6.7469 -8.6257 3.0561 0.0000 0.0000 -6.8659 0.3254 -0.8985 9.9676 -1.2418 0.2201 5.3419 3.1297 -3.2360 17.4782 -2.4934 5.4089 19.8834 11.5659 -3.5616 -9.2619 -41.8137 -67.0503 -0.0001 -16.1017 -0.0000 -6.7917 3.2082 -15.8142 -0.0000 0.0000 -0.0000 -0.0000 0.0000 -0.0000 13.9381 -19.3468 5.1591 -5.8568 16.8510 64.7843 -0.0000 12.0879 0.0000 -33.9912 -0.9784 10.1876 -0.0000 0.0000 -0.0000 -0.0000 0.0000 -0.0000
 11.4743 32.3251 29.7538 -108.5532 84.7396 106.4397 7.2859 5.9775 3.9450 44.7152 -0.0000 0.0000 -14.4866 -19.3668 -16.3004 0.1078 -0.0000 -0.0000 -4.6954 -7.9785 11.3812 13.1496 -0.0000 -0.0000 -13.9494 -6.2627 -9.1074 3.0396 0.0000 0.0000 -6.7325 0.1223 -1.0086 10.0655 -1.4288 0.2305 5.1832 3.0878 -3.1567 17.4795 -2.5415 5.4794 19.6841 11.4649 -3.5466 -9.8443 -41.9597 -67.2133 -0.0001 -16.1370 -0.0000 -6.4845 3.1771 -15.4701 -0.0000 -0.0000 -0.0000 -0.0000 -0.0000 -0.0000 13.9471 -19.5811 5.2550 -5.4106 16.2849 65.0438 -0.0000 11.7513 0.0000 -34.0026 -1.0774 10.0593 -0.0000 0.0000 0.0000 -0.0000 0.0000 0.0000
 11.1936 32.2832 29.8114 -113.1825 84.5141 110.9922 8.2345 6.2334 3.5989 42.4550 -0.0000 0.0000 -15.5175 -17.6360 -14.8697 -1.4529 -0.0000 0.0000 -5.4675 -9.9418 11.2616 14.4086 -0.0000 0.0000 -13.7042 -4.9401 -9.2761 2.8980 -0.0000 -0.0000 -6.5474 -0.0765 -1.0675 10.1401 -1.6085 0.2749 5.1588 3.0231 -3.0952 17.2217 -2.5924 5.4523 19.5789 11.3387 -3.5388 -10.5592 -42.1066 -67.4141 -0.0001 -16.1704 -0.0000 -6.3280 3.0662 -15.1411 -0.0000 0.0000 -0.0000 -0.0000 0.0000 -0.0000 13.9909 -19.7491 5.2358 -5.0337 15.7212 65.4209 -0.0000 11.3515 0.0000 -34.0052 -1.1092 10.0512 -0.0000 -0.0000 -0.0000 -0.0000 -0.0000 -0.0000
 10.8938 32.2346 29.8628 -116.5170 84.2780 114.2784 9.1033 6.4082 3.1259 40.5017 -0.0000 0.0000 -16.1077 -16.0277 -12.4947 -3.6748 0.0000 0.0000 -6.3557 -11.8646 11.0486 15.8208 0.0000 -0.0000 -13.4101 -3.6083 -9.3013 2.6774 -0.0000 -0.0000 -6.3007 -0.2439 -1.1083 10.2340 -1.7593 0.3046 5.1443 2.9564 -3.0813 16.8513 -2.6302 5.4389 19.4853 11.2311 -3.5458 -11.3683 -42.2332 -67.6502 -0.0001 -16.2349 -0.0000 -6.1800 2.9884 -14.7968 -0.0000 0.0000 0.0000 -0.0000 0.0000 0.0000 13.9947 -19.8666 5.1258 -4.6761 15.1806 65.8800 -0.0000 10.9540 0.0000 -33.8452 -1.2469 9.8720 0.0000 -0.0000 -0.0000 0.0000 -0.0000 -0.0000
 10.5764 32.1862 29.8980 -118.9158 84.0758 116.8020 9.8484 6.5056 2.4454 38.7577 -0.0000 0.0000 -16.0687 -14.9040 -8.4081 -6.8551 0.0000 0.0000 -7.4848 -13.7469 10.5625 17.4783 -0.0000 0.0000 -13.1854 -2.2661 -9.2151 2.6692 -0.0000 0.0000 -6.0114 -0.3894 -1.2196 10.2802 -1.8972 0.2499 5.1659 2.9067 -3.0741 16.4698 -2.6482 5.3645 19.5228 11.1013 -3.6568 -12.2131 -42.3698 -67.7629 -0.0001 -16.3242 -0.0000 -6.2571 2.8291 -14.4309 -0.0000 0.0000 -0.0000 -0.0000 0.0000 -0.0000 14.0172 -19.8702 5.0327 -4.2620 14.7173 66.2709 -0.0000 10.5332 0.0000 -33.6100 -1.3702 9.8327 -0.0000 -0.0000 0.0000 -0.0000 -0.0000 0.0000
 10.2395 32.1318 29.9335 -120.5902 83.9456 118.5871 10.3562 6.7928 1.8970 37.1673 -0.0000 0.0000 -16.3837 -14.1038 -5.6465 -8.7967 0.0000 0.0000 -8.9598 -14.9983 10.0530 19.3558 -0.0000 0.0000 -12.8305 -1.4271 -9.1417 2.5297 0.0000 0.0000 -5.7660 -0.4947 -1.2899 10.4622 -2.0048 0.1741 5.0806 2.8693 -3.1098 16.0444 -2.6399 5.3799 19.4325 10.9799 -3.7274 -13.0428 -42.4642 -67.8961 -0.0001 -16.5439 -0.0000 -6.3721 2.8368 -14.0710 0.0000 0.0000 -0.0000 0.0000 0.0000 -0.0000 14.1045 -19.9409 4.9569 -3.9715 14.6327 66.6817 -0.0000 10.0549 0.0000 -33.5645 -1.4927 9.8581 -0.0000 0.0000 -0.0000 -0.0000 0.0000 -0.0000
 9.8676 32.0711 29.9689 -122.8696 83.9224 120.9823 10.5638 6.7680 1.3350 35.7555 -0.0000 0.0000 -17.3564 -12.7914 -3.5735 -9.2321 0.0000 -0.0000 -10.9700 -15.6598 9.4656 21.5899 -0.0000 0.0000 -12.3172 -1.1146 -9.0191 2.0235 -0.0000 -0.0000 -5.4976 -0.6015 -1.3475 10.5052 -2.1254 0.0541 5.0117 2.7932 -3.0826 15.6179 -2.6102 5.3552 19.4756 10.8061 -3.7556 -14.0445 -42.5107 -68.0720 -0.0001 -16.8444 -0.0000 -6.4660 3.0333 -13.7981 -0.0000 -0.0000 -0.0000 -0.0000 -0.0000 -0.0000 14.3471 -19.8909 4.9770 -3.7567 14.4948 67.0455 -0.0000 9.6755 0.0000 -33.7478 -1.6924 9.8256 0.0000 0.0000 -0.0000 0.0000 0.0000 -0.0000
 9.4840 32.0076 30.0073 -124.7989 84.0048 122.9920 10.5928 6.7665 0.8668 34.5436 -0.0000 0.0000 -18.7500 -11.4820 -2.0556 -8.2496 0.0000 -0.0000 -13.3565 -15.9579 8.8391 24.2261 -0.0000 0.0000 -11.7141 -1.0214 -8.3969 1.6096 0.0000 0.0000 -5.3046 -0.6878 -1.3611 10.6234 -2.2334 -0.0636 4.8849 2.7352 -3.1002 15.1863 -2.5566 5.3399 19.4506 10.6536 -3.7958 -15.0496 -42.4848 -68.2273 -0.0001 -17.0093 -0.0000 -6.6610 2.6792 -13.7826 -0.0000 -0.0000 0.0000 -0.0000 -0.0000 0.0000 14.4654 -19.9144 4.9486 -3.4835 14.6803 67.4233 -0.0000 9.2513 0.0000 -33.8079 -1.7852 9.8115 -0.0000 0.0000 -0.0000 -0.0000 0.0000 -0.0000
 9.1010 31.9431 30.0459 -126.6213 84.0720 124.8481 10.5322 6.9410 0.5305 33.4276 -0.0000 0.0000 -20.0856 -10.6171 -0.5509 -7.1549 -0.0000 -0.0000 -15.9641 -16.0875 8.1607 27.2341 -0.0000 0.0000 -10.9274 -0.9920 -7.3303 1.1622 -0.0000 0.0000 -5.1284 -0.7657 -1.3416 10.7884 -2.3344 -0.1627 4.7881 2.6475 -3.0878 14.7289 -2.4885 5.3003 19.4247 10.4944 -3.8462 -15.9981 -42.6383 -68.3227 -0.0001 -17.2001 -0.0000 -6.9534 2.4040 -13.6442 -0.0000 -0.0000 0.0000 -0.0000 -0.0000 0.0000 14.5192 -19.9108 4.8957 -3.1402 14.8261 67.7753 -0.0000 8.8986 0.0000 -33.5710 -2.0680 10.0715 -0.0000 0.0000 -0.0000 -0.0000 0.0000 -0.0000
 8.7083 31.8770 30.0863 -128.2960 84.1288 126.5009 10.3433 7.1668 0.3061 32.4401 0.0000 0.0000 -21.3014 -9.8915 0.3060 -6.2701 0.0000 0.0000 -18.7813 -16.2318 7.3987 30.5493 0.0000 0.0000 -9.7503 -0.7441 -5.9276 0.3360 0.0000 -0.0000 -4.8610 -0.8670 -1.2959 10.8473 -2.4484 -0.2093 4.7528 2.5175 -3.0758 14.2729 -2.3598 5.2053 19.3889 10.3375 -3.8989 -16.8544 -42.7490 -68.4138 -0.0001 -17.4924 -0.0000 -7.2391 2.1761 -13.4920 -0.0000 -0.0000 -0.0000 -0.0000 -0.0000 -0.0000 14.6328 -19.9057 4.8516 -2.8306 15.0486 68.0748 -0.0000 8.5823 0.0000 -33.3969 -2.3086 10.2929 -0.0000 0.0000 -0.0000 -0.0000 0.0000 -0.0000
 8.3123 31.8115 30.1227 -130.2876 84.1818 128.5059 10.0273 6.9994 -0.0059 31.6063 -0.0000 0.0000 -22.5873 -8.9626 0.7179 -4.7914 -0.0000 0.0000 -21.7854 -16.4434 6.4469 34.0413 -0.0000 -0.0000 -8.2956 -0.2829 -4.1475 -0.3330 -0.0000 0.0000 -4.6514 -0.9583 -1.2831 11.0070 -2.5511 -0.2394 4.6718 2.3522 -3.0452 13.8377 -2.2531 5.0786 19.3838 10.1551 -3.9862 -17.7517 -42.9753 -68.4396 -0.0001 -17.7964 -0.0000 -7.4941 2.0206 -13.4149 -0.0000 0.0000 -0.0000 -0.0000 0.0000 -0.0000 14.6803 -19.9224 4.8111 -2.5221 15.2442 68.3638 -0.0000 8.2939 0.0000 -33.1961 -2.4450 10.5035 -0.0000 -0.0000 0.0000 -0.0000 -0.0000 0.0000
 7.9218 31.7513 30.1541 -131.9061 84.1906 130.1760 9.7217 6.7257 -0.3578 30.8270 -0.0000 0.0000 -23.6831 -8.0825 1.3830 -3.5220 -0.0000 -0.0000 -24.7824 -16.5729 5.3466 37.4604 -0.0000 0.0000 -6.5024 0.4206 -1.9942 -0.9777 0.0000 0.0000 -4.4272 -1.0606 -1.2915 11.1989 -2.6665 -0.2745 4.6062 2.2059 -3.0264 13.4517 -2.1301 4.9604 19.3534 9.9548 -4.0828 -18.5394 -43.1825 -68.4136 -0.0001 -18.1591 -0.0000 -7.6327 1.8952 -13.2839 0.0000 0.0000 -0.0000 0.0000 0.0000 -0.0000 14.7372 -19.9039 4.7937 -2.2461 15.3142 68.5900 -0.0000 8.1039 0.0000 -32.9056 -2.6608 10.8765 -0.0000 0.0000 0.0000 -0.0000 0.0000 0.0000
 7.5440 31.6995 30.1951 -133.0808 84.1179 131.3591 9.4634 6.4952 -0.5726 30.0951 -0.0000 0.0000 -24.7408 -7.4422 1.8307 -2.0997 -0.0000 0.0000 -27.6338 -16.5970 4.2260 40.6855 -0.0000 0.0000 -4.4671 1.3357 0.6880 -1.1948 0.0000 0.0000 -4.1934 -1.1872 -1.3062 11.5000 -2.7964 -0.2623 4.4668 2.0990 -3.0081 13.1959 -2.0217 4.8614 19.2991 9.8208 -4.2422 -19.1835 -43.5662 -68.2349 -0.0001 -18.5592 -0.0000 -7.9005 1.6751 -13.1613 0.0000 0.0000 0.0000 0.0000 0.0000 0.0000 14.8049 -19.9414 4.8354 -2.0077 15.6053 68.7732 -0.0000 7.8350 0.0000 -32.8298 -2.5523 11.0653 -0.0000 0.0000 0.0000 -0.0000 0.0000 0.0000
 7.1680 31.6516 30.2304 -134.1078 84.0360 132.3965 9.2439 6.3249 -0.7456 29.2978 0.0000 0.0000 -25.7565 -7.0072 2.2873 -0.5534 -0.0000 0.0000 -30.4620 -16.3353 3.0706 43.7536 -0.0000 0.0000 -2.2017 2.3961 3.9121 -1.6543 -0.0000 -0.0000 -3.9279 -1.2899 -1.3016 11.7172 -2.9033 -0.2540 4.4217 1.9786 -3.0006 12.9637 -1.9471 4.7945 19.2787 9.5803 -4.3837 -19.8520 -43.8268 -68.0978 -0.0001 -18.8938 -0.0000 -8.0800 1.4482 -13.0404 0.0000 0.0000 -0.0000 0.0000 0.0000 -0.0000 14.8117 -19.9392 4.8434 -1.6994 15.5636 68.9553 -0.0000 7.7466 0.0000 -32.6177 -2.6380 11.1363 -0.0000 -0.0000 -0.0000 -0.0000 -0.0000 -0.0000
 6.7966 31.6052 30.2708 -135.1193 83.9686 133.3971 9.0629 6.1304 -0.8414 28.3732 0.0000 -0.0000 -26.6827 -6.7339 2.4381 0.8341 0.0000 -0.0000 -33.2389 -15.9078 1.9736 46.6768 -0.0000 0.0000 0.0680 3.4560 7.8668 -1.4413 0.0000 -0.0000 -3.6947 -1.4059 -1.2901 11.9770 -3.0250 -0.2386 4.3253 1.8892 -3.0042 12.7678 -1.8767 4.7539 19.2633 9.4620 -4.5287 -20.4991 -44.2383 -67.9557 -0.0001 -19.2703 -0.0000 -8.0167 1.3213 -12.7739 -0.0000 0.0000 -0.0000 -0.0000 0.0000 -0.0000 14.8561 -19.9867 4.8879 -1.5092 15.5719 69.1217 -0.0000 7.6426 0.0000 -32.5311 -2.5827 11.1161 -0.0000 -0.0000 -0.0000 -0.0000 -0.0000 -0.0000
 6.4277 31.5619 30.3192 -136.1610 83.9285 134.3859 8.8749 5.8288 -0.8586 27.3834 0.0000 0.0000 -27.5723 -6.5096 2.3288 2.2199 -0.0000 0.0000 -35.9633 -15.2216 1.0175 49.4126 -0.0000 0.0000 2.6406 4.6491 12.1491 -1.3066 -0.0000 -0.0000 -3.4306 -1.4952 -1.2543 12.1043 -3.1150 -0.2040 4.2945 1.8000 -3.0436 12.6388 -1.8538 4.7454 19.2867 9.2886 -4.6376 -21.0494 -44.5723 -67.7707 -0.0001 -19.7509 -0.0000 -7.9661 1.3193 -12.6259 -0.0000 -0.0000 0.0000 -0.0000 -0.0000 0.0000 14.9419 -20.0060 4.9612 -1.2853 15.4250 69.2548 -0.0000 7.6009 0.0000 -32.3678 -2.5538 11.0512 0.0000 -0.0000 -0.0000 0.0000 -0.0000 -0.0000
